<svg xmlns="http://www.w3.org/2000/svg" viewBox="0 0 750 500"><g id="freepik--background-complete--inject-5"><rect x="57.23" y="76.1" width="190.74" height="375.87" style="fill:#ebebeb"></rect><rect x="73.56" y="94.07" width="158.07" height="269.39" style="fill:#fff"></rect><path d="M196.11,393.7c-11.63.14-23.25.11-34.88.17,0,5.74,0,11.48,0,17.22L161.14,429c-.08,7.68-.15,15.35-.28,23h-.53c-.13-7.67-.21-15.34-.3-23L160,411.09c0-6,0-11.91,0-17.87v-.64h.65c11.84.05,23.68,0,35.52.17s23.68.23,35.52.47Q213.87,393.6,196.11,393.7Z" style="fill:#c7c7c7"></path><path d="M232.24,452H231l.05-12.13c.13-11.69.26-23.38.55-35.06.3,11.68.43,23.37.55,35.06Z" style="fill:#c7c7c7"></path><rect x="168.55" y="422.48" width="5.38" height="20.62" transform="translate(342.47 865.59) rotate(180)" style="fill:#c7c7c7"></rect><path d="M145.23,411.09,145.16,429c-.08,7.68-.16,15.35-.29,23h-.53c-.13-7.67-.21-15.34-.28-23L144,411.09c0-5.74,0-11.48,0-17.22-11.62-.06-23.25,0-34.87-.17q-17.76-.13-35.52-.48,17.76-.36,35.52-.47c11.84-.15,23.68-.12,35.52-.17h.63l0,.64C145.29,399.18,145.26,405.13,145.23,411.09Z" style="fill:#c7c7c7"></path><path d="M74.17,452H73L73,439.84c.12-11.69.24-23.38.55-35.06.29,11.68.41,23.37.54,35.06Z" style="fill:#c7c7c7"></path><rect x="131.27" y="422.48" width="5.38" height="20.62" style="fill:#c7c7c7"></rect><rect x="73.56" y="167.24" width="158.07" height="2.45" style="fill:#c7c7c7"></rect><rect x="73.56" y="230.4" width="158.07" height="2.45" style="fill:#c7c7c7"></rect><rect x="73.56" y="293.55" width="158.07" height="2.45" style="fill:#c7c7c7"></rect><rect x="150.78" y="94.07" width="3.64" height="269.39" style="fill:#ebebeb"></rect><rect x="157.94" y="199.22" width="18.73" height="31.17" transform="translate(334.6 429.62) rotate(180)" style="fill:#ebebeb"></rect><rect x="155.37" y="193.92" width="23.87" height="5.3" transform="translate(334.6 393.14) rotate(180)" style="fill:#dbdbdb"></rect><rect x="160.34" y="206.08" width="13.92" height="19.22" transform="translate(334.6 431.39) rotate(180)" style="fill:#c7c7c7"></rect><rect x="183.18" y="199.22" width="18.73" height="31.17" transform="translate(385.08 429.62) rotate(180)" style="fill:#ebebeb"></rect><rect x="180.61" y="193.92" width="23.87" height="5.3" transform="translate(385.08 393.14) rotate(180)" style="fill:#dbdbdb"></rect><rect x="185.58" y="206.08" width="13.92" height="19.22" transform="translate(385.08 431.39) rotate(180)" style="fill:#c7c7c7"></rect><rect x="208.42" y="199.22" width="18.73" height="31.17" transform="translate(435.57 429.62) rotate(180)" style="fill:#ebebeb"></rect><rect x="205.85" y="193.92" width="23.87" height="5.3" transform="translate(435.57 393.14) rotate(180)" style="fill:#dbdbdb"></rect><rect x="210.82" y="206.08" width="13.92" height="19.22" transform="translate(435.57 431.39) rotate(180)" style="fill:#c7c7c7"></rect><path d="M76.83,259.89h24.82a0,0,0,0,1,0,0v28.35a5.31,5.31,0,0,1-5.31,5.31H82.14a5.31,5.31,0,0,1-5.31-5.31V259.89A0,0,0,0,1,76.83,259.89Z" transform="translate(178.48 553.45) rotate(180)" style="fill:#ebebeb"></path><rect x="82.05" y="256.56" width="14.39" height="3.43" transform="translate(178.48 516.56) rotate(180)" style="fill:#ebebeb"></rect><rect x="78.38" y="252.9" width="21.72" height="3.67" transform="translate(178.48 509.46) rotate(180)" style="fill:#dbdbdb"></rect><rect x="80.81" y="268.05" width="20.84" height="18.17" transform="translate(182.46 554.27) rotate(180)" style="fill:#c7c7c7"></rect><path d="M104.58,259.89H129.4a0,0,0,0,1,0,0v28.35a5.31,5.31,0,0,1-5.31,5.31H109.89a5.31,5.31,0,0,1-5.31-5.31V259.89A0,0,0,0,1,104.58,259.89Z" transform="translate(233.98 553.45) rotate(180)" style="fill:#ebebeb"></path><rect x="109.8" y="256.56" width="14.39" height="3.43" transform="translate(233.98 516.56) rotate(180)" style="fill:#ebebeb"></rect><rect x="106.13" y="252.9" width="21.72" height="3.67" transform="translate(233.98 509.46) rotate(180)" style="fill:#dbdbdb"></rect><rect x="108.56" y="268.05" width="20.84" height="18.17" transform="translate(237.96 554.27) rotate(180)" style="fill:#c7c7c7"></rect><rect x="156.86" y="323.22" width="31.11" height="40.24" transform="translate(344.82 686.68) rotate(180)" style="fill:#ebebeb"></rect><polygon points="156.85 323.22 187.96 323.22 182 315.01 162.82 315.01 156.85 323.22" style="fill:#ebebeb"></polygon><rect x="159.27" y="307.03" width="26.28" height="7.98" transform="translate(344.82 622.04) rotate(180)" style="fill:#c7c7c7"></rect><rect x="161.3" y="332.17" width="26.67" height="18.09" transform="translate(349.26 682.43) rotate(180)" style="fill:#dbdbdb"></rect><rect x="190.3" y="323.22" width="31.11" height="40.24" transform="translate(411.7 686.68) rotate(180)" style="fill:#ebebeb"></rect><polygon points="190.3 323.22 221.41 323.22 215.44 315.01 196.26 315.01 190.3 323.22" style="fill:#ebebeb"></polygon><rect x="192.71" y="307.03" width="26.28" height="7.98" transform="translate(411.7 622.04) rotate(180)" style="fill:#c7c7c7"></rect><rect x="194.74" y="332.17" width="26.67" height="18.09" transform="translate(416.14 682.43) rotate(180)" style="fill:#dbdbdb"></rect><path d="M139.94,167.24H84.19a5.81,5.81,0,0,1-5.81-5.8h0a5.81,5.81,0,0,1,5.81-5.81h55.75a5.81,5.81,0,0,1,5.81,5.81h0A5.81,5.81,0,0,1,139.94,167.24Z" style="fill:#dbdbdb"></path><path d="M139.94,154.87H84.19a5.81,5.81,0,0,1-5.81-5.8h0a5.81,5.81,0,0,1,5.81-5.81h55.75a5.81,5.81,0,0,1,5.81,5.81h0A5.81,5.81,0,0,1,139.94,154.87Z" style="fill:#dbdbdb"></path><path d="M139,142.51H85.15A4.17,4.17,0,0,1,81,138.34h0a4.16,4.16,0,0,1,4.16-4.16H139a4.16,4.16,0,0,1,4.16,4.16h0A4.17,4.17,0,0,1,139,142.51Z" style="fill:#ebebeb"></path><path d="M139,133.43H85.15A4.16,4.16,0,0,1,81,129.27h0a4.17,4.17,0,0,1,4.16-4.17H139a4.17,4.17,0,0,1,4.16,4.17h0A4.16,4.16,0,0,1,139,133.43Z" style="fill:#ebebeb"></path><path d="M447.26,296.41a41.3,41.3,0,1,1,41.3-41.3A41.35,41.35,0,0,1,447.26,296.41Zm0-80.77a39.47,39.47,0,1,0,39.46,39.47A39.52,39.52,0,0,0,447.26,215.64Z" style="fill:#ebebeb"></path><path d="M445.19,302.25c-.63,0-1.26-.06-1.88-.11l.15-1.83,1.81.11Zm6.57-.16-.17-1.83,1.8-.21.24,1.82C453,302,452.39,302,451.76,302.09Zm-14.95-.95q-.93-.21-1.83-.45l.48-1.78c.58.16,1.16.3,1.75.43Zm23.27-.6-.5-1.77c.58-.17,1.16-.34,1.73-.53l.57,1.75C461.28,300.19,460.68,300.37,460.08,300.54Zm-31.33-2c-.57-.24-1.15-.5-1.72-.77l.79-1.66c.55.26,1.1.5,1.66.74Zm39.22-1-.8-1.65c.54-.27,1.07-.54,1.6-.83l.88,1.62C469.1,297,468.54,297.25,468,297.52Zm-46.67-3c-.52-.34-1-.7-1.55-1.06l1.07-1.5c.49.36,1,.7,1.49,1Zm53.9-1.38-1.09-1.48c.49-.36,1-.72,1.44-1.1l1.14,1.44C476.2,292.39,475.71,292.77,475.2,293.14Zm-60.51-3.88c-.46-.44-.9-.88-1.34-1.33l1.32-1.28c.42.43.85.86,1.28,1.28Zm66.84-1.72-1.33-1.26c.42-.44.82-.88,1.22-1.34l1.38,1.21C482.39,286.62,482,287.09,481.53,287.54Zm-72.42-4.64c-.36-.51-.72-1-1.07-1.54l1.52-1c.34.5.68,1,1,1.48Zm77.67-2-1.54-1q.5-.75,1-1.53l1.58.94C487.46,279.85,487.12,280.38,486.78,280.91Zm-82-5.26c-.27-.56-.53-1.13-.78-1.7l1.68-.74c.24.55.5,1.1.76,1.64Zm86-2.21-1.7-.72c.24-.55.46-1.11.67-1.68l1.73.65C491.23,272.28,491,272.86,490.76,273.44Zm-89-5.7c-.17-.6-.32-1.21-.47-1.82l1.79-.42c.14.59.29,1.17.45,1.75Zm91.55-2.37-1.79-.4c.13-.58.25-1.17.35-1.77l1.81.33C493.59,264.15,493.47,264.76,493.33,265.37Zm-93.07-5.94c-.05-.63-.1-1.25-.13-1.88l1.84-.09q0,.9.12,1.8ZM494.41,257l-1.83-.07c0-.6,0-1.21,0-1.81v-.19h1.84v.18C494.45,255.74,494.44,256.36,494.41,257Zm-92.33-5.86-1.83-.16c.05-.63.12-1.25.2-1.87l1.82.23C402.19,249.93,402.13,250.53,402.08,251.13Zm90.07-2.51c-.09-.6-.18-1.2-.29-1.79l1.81-.33c.11.61.21,1.23.3,1.85Zm-88.65-5.49-1.77-.48c.17-.61.34-1.21.53-1.81l1.76.56C403.83,242,403.66,242.55,403.5,243.13Zm86.78-2.42c-.19-.57-.39-1.14-.61-1.7l1.72-.66c.22.59.43,1.18.63,1.78Zm-83.93-5.2-1.66-.79c.27-.57.55-1.13.85-1.68l1.62.86C406.88,234.43,406.61,235,406.35,235.51ZM487,233.27q-.43-.79-.9-1.56l1.57-1c.32.53.64,1.08.94,1.63Zm-76.51-4.74L409,227.45c.37-.51.74-1,1.13-1.5l1.45,1.14C411.22,227.56,410.86,228,410.51,228.53Zm72-2c-.38-.47-.77-.93-1.17-1.39l1.38-1.21c.42.47.82.95,1.22,1.44Zm-66.64-4.14-1.27-1.33c.45-.43.91-.86,1.38-1.27l1.22,1.37C416.72,221.57,416.28,222,415.84,222.4Zm61-1.69c-.46-.39-.93-.78-1.4-1.15l1.14-1.44,1.46,1.19Zm-54.64-3.4-1-1.53c.53-.34,1-.68,1.59-1l1,1.57C423.19,216.66,422.68,217,422.18,217.31Zm48-1.33c-.51-.31-1-.6-1.57-.89l.86-1.62c.56.3,1.11.61,1.65.92Zm-40.88-2.54-.73-1.69c.58-.24,1.15-.48,1.74-.7l.66,1.71C430.43,213,429.87,213.2,429.32,213.44Zm33.53-.93c-.57-.21-1.14-.41-1.71-.59l.56-1.75c.6.19,1.19.39,1.78.61ZM437,210.91l-.42-1.79c.61-.14,1.23-.27,1.85-.38l.33,1.8C438.21,210.65,437.62,210.78,437,210.91Zm18-.5c-.6-.1-1.19-.19-1.79-.27l.24-1.82c.62.08,1.24.18,1.86.28Zm-9.91-.6L445,208c.62,0,1.25-.05,1.88-.05v1.84C446.29,209.76,445.69,209.78,445.09,209.81Z" style="fill:#ebebeb"></path><polygon points="440.93 280.65 453.65 280.65 453.65 261.45 472.85 261.45 472.85 248.72 453.65 248.72 453.65 229.52 440.93 229.52 440.93 248.72 421.73 248.72 421.73 261.45 440.93 261.45 440.93 280.65" style="fill:#ebebeb"></polygon><path d="M679.7,124.32a80.23,80.23,0,0,1-25.76,22.36,80.15,80.15,0,0,1-25.75-22.36c-9.07-12-8.63-30.79,4.35-34.85,14.34-4.49,21.4,17.1,21.4,17.1s7.15-21.74,21.41-17.1C688.27,93.67,688.77,112.32,679.7,124.32Z" style="fill:#ebebeb"></path><polygon points="643.82 137.19 639.91 120.91 637.36 126.65 621.56 126.65 621.56 124.81 636.16 124.81 640.43 115.21 643.48 127.91 647.79 101.6 651.59 122.41 654.6 113.72 659.35 127.94 660.39 124.8 686.34 124.8 686.34 126.64 661.72 126.64 659.34 133.75 654.57 119.43 651.04 129.62 647.89 112.36 643.82 137.19" style="fill:#fff"></polygon><path d="M654,154.4a41.31,41.31,0,1,1,41.3-41.3A41.35,41.35,0,0,1,654,154.4Zm0-80.77a39.47,39.47,0,1,0,39.46,39.47A39.51,39.51,0,0,0,654,73.63Z" style="fill:#ebebeb"></path><path d="M651.9,160.24c-.63,0-1.25-.06-1.87-.12l.15-1.83q.9.08,1.8.12Zm6.58-.16-.17-1.83c.6-.06,1.2-.13,1.79-.21l.25,1.82C659.73,159.94,659.11,160,658.48,160.08Zm-15-1c-.61-.13-1.22-.28-1.82-.45l.47-1.77c.58.15,1.17.3,1.76.43Zm23.27-.59-.5-1.77c.59-.17,1.16-.34,1.73-.53l.57,1.75C668,158.17,667.4,158.36,666.79,158.53Zm-31.32-2c-.58-.25-1.15-.5-1.72-.77l.79-1.66c.55.26,1.1.5,1.65.74Zm39.22-1-.8-1.65c.54-.27,1.07-.54,1.6-.83l.87,1.62C675.81,155,675.26,155.23,674.69,155.51Zm-46.67-3c-.53-.34-1-.7-1.55-1.07l1.07-1.49c.49.35,1,.7,1.49,1Zm53.9-1.38-1.09-1.48c.49-.36,1-.73,1.43-1.1l1.15,1.43C682.92,150.38,682.42,150.76,681.92,151.13Zm-60.52-3.89c-.45-.43-.9-.87-1.33-1.32l1.32-1.28c.42.43.85.86,1.28,1.27Zm66.85-1.71-1.33-1.26c.41-.44.82-.89,1.22-1.34l1.38,1.21C689.11,144.61,688.68,145.08,688.25,145.53Zm-72.42-4.64c-.37-.51-.73-1-1.08-1.54l1.53-1c.34.5.68,1,1,1.48Zm77.67-2-1.54-1c.33-.5.65-1,1-1.54l1.58,1C694.17,137.84,693.84,138.37,693.5,138.9Zm-82-5.26q-.4-.84-.78-1.71l1.68-.73c.24.55.49,1.1.75,1.64Zm86-2.21-1.69-.72c.24-.55.46-1.11.67-1.68l1.72.65C698,130.27,697.72,130.85,697.47,131.43Zm-89-5.7c-.17-.6-.33-1.21-.47-1.82l1.79-.42c.14.59.29,1.17.45,1.75Zm91.55-2.37-1.8-.4q.19-.87.36-1.77l1.81.33C700.31,122.14,700.18,122.75,700.05,123.36Zm-93.07-6c-.06-.62-.1-1.24-.13-1.87l1.83-.1c0,.61.07,1.21.13,1.81ZM701.13,115l-1.84-.08c0-.6,0-1.2,0-1.8v-.19h1.84v.17C701.17,113.73,701.16,114.35,701.13,115Zm-92.34-5.86L607,109c.06-.63.12-1.25.2-1.87l1.83.23C608.91,107.92,608.85,108.52,608.79,109.12Zm90.08-2.52c-.09-.6-.19-1.19-.29-1.78l1.8-.34c.12.62.22,1.24.31,1.86Zm-88.65-5.48-1.77-.48c.16-.61.34-1.21.53-1.81l1.75.56C610.55,100,610.38,100.54,610.22,101.12ZM697,98.7c-.2-.58-.4-1.14-.61-1.71l1.72-.65q.33.89.63,1.77Zm-83.94-5.2-1.66-.79c.28-.57.56-1.13.85-1.69l1.63.87C613.59,92.42,613.32,93,613.06,93.5Zm80.68-2.24c-.3-.53-.6-1.05-.91-1.57l1.58-1c.32.54.63,1.08.94,1.63Zm-76.52-4.74-1.49-1.08q.56-.76,1.14-1.5l1.44,1.13C617.94,85.55,617.58,86,617.22,86.52Zm72-2q-.57-.7-1.17-1.38l1.38-1.21c.41.47.82.95,1.21,1.43Zm-66.64-4.14-1.27-1.32c.45-.43.91-.86,1.38-1.28l1.22,1.38C623.44,79.56,623,80,622.56,80.38Zm61-1.69c-.45-.39-.92-.77-1.39-1.15l1.14-1.44c.49.39,1,.79,1.45,1.2ZM628.9,75.3l-1-1.53c.52-.35,1-.68,1.59-1l.95,1.57C629.91,74.64,629.4,75,628.9,75.3Zm48-1.33c-.52-.31-1-.61-1.58-.89l.87-1.62c.55.3,1.1.6,1.64.92ZM636,71.43l-.73-1.69c.57-.25,1.15-.48,1.73-.71l.67,1.72C637.14,71,636.59,71.19,636,71.43Zm33.53-.94-1.72-.59.56-1.75c.6.2,1.2.4,1.79.62ZM643.75,68.9l-.41-1.79c.61-.14,1.22-.27,1.84-.39l.34,1.81C644.93,68.64,644.34,68.76,643.75,68.9Zm18-.5c-.59-.1-1.19-.19-1.79-.27l.24-1.82c.63.08,1.25.17,1.86.28Zm-9.91-.61L651.72,66c.62,0,1.25,0,1.88,0v1.83Z" style="fill:#ebebeb"></path></g><g id="freepik--Table--inject-5"><path d="M48.83,452c209-.61,443.37-.62,652.34,0-209,.62-443.37.61-652.34,0Z" style="fill:#263238"></path></g><g id="freepik--speech-bubble-2--inject-5"><path d="M493.1,103.28a39.56,39.56,0,0,0,66.11,25l19.8,2.9L569.1,114.1a39.18,39.18,0,0,0,2.72-19,39.57,39.57,0,1,0-78.72,8.23Z" style="fill:#fff"></path><path d="M504.94,70.6a39.49,39.49,0,0,1,33.16-11A39.8,39.8,0,0,1,555,65.93a40.43,40.43,0,0,1,12.4,13.19,40,40,0,0,1,2.43,35.27l0-.67,9.84,17.14.73,1.27-1.43-.22-19.78-3,.47-.14A40,40,0,0,1,540,138.39a33.62,33.62,0,0,1-5.48.57,38.71,38.71,0,0,1-5.49-.1,39.86,39.86,0,0,1-10.66-2.54,39,39,0,0,1-9.54-5.32,35.58,35.58,0,0,1-7.77-7.66,39.82,39.82,0,0,1,3.86-52.74Zm-3.74,52.65a46.59,46.59,0,0,0,3.6,4.09,43.31,43.31,0,0,0,4.18,3.48,36.6,36.6,0,0,0,9.55,5.15,37.48,37.48,0,0,0,16,2.33,33.51,33.51,0,0,0,5.37-.65,39,39,0,0,0,19-9.76l.19-.18.27,0,19.82,2.77-.71,1-10-17.08-.19-.33.14-.35a39.55,39.55,0,0,0,2.79-17.24,39,39,0,0,0-5-16.74,40.64,40.64,0,0,0-11.84-12.92A38.74,38.74,0,0,0,538,60.46a39.31,39.31,0,0,0-17.6,1.32,39.12,39.12,0,0,0-19.17,61.47Z" style="fill:#263238"></path><circle cx="549.19" cy="99.13" r="3.64" style="fill:#263238"></circle><path d="M535.37,99.13a3.65,3.65,0,1,1-3.65-3.64A3.65,3.65,0,0,1,535.37,99.13Z" style="fill:#263238"></path><circle cx="514.26" cy="99.13" r="3.64" style="fill:#263238"></circle></g><g id="freepik--speech-bubble-1--inject-5"><path d="M384.42,138.05a39.56,39.56,0,0,1-66.11,25l-19.8,2.9,9.91-17.11a39.18,39.18,0,0,1-2.72-19.05,39.57,39.57,0,1,1,78.72,8.23Z" style="fill:#fff"></path><path d="M384.42,138.05a39.86,39.86,0,0,1-8,20.06,35.58,35.58,0,0,1-7.77,7.66,39,39,0,0,1-9.54,5.32,39.86,39.86,0,0,1-10.66,2.54,38.71,38.71,0,0,1-5.49.1,33.62,33.62,0,0,1-5.48-.57,40,40,0,0,1-19.58-9.66l.47.14-19.78,3-1.43.22.73-1.27,9.84-17.14,0,.67a40,40,0,0,1,2.43-35.27,40.43,40.43,0,0,1,12.4-13.19,39.8,39.8,0,0,1,16.88-6.34,39.49,39.49,0,0,1,33.16,11A39.79,39.79,0,0,1,384.42,138.05Zm0,0a39.14,39.14,0,0,0-44.87-42.82,38.83,38.83,0,0,0-16.35,6.45,40.73,40.73,0,0,0-11.83,12.92,39,39,0,0,0-5,16.74,39.55,39.55,0,0,0,2.79,17.24l.14.35-.19.33-10,17.08-.71-1.05,19.82-2.77.27,0,.19.18a39,39,0,0,0,18.95,9.76,33.51,33.51,0,0,0,5.37.65,37.48,37.48,0,0,0,16-2.33,36.6,36.6,0,0,0,9.55-5.15,42,42,0,0,0,4.18-3.49,45.06,45.06,0,0,0,3.6-4.08A39.72,39.72,0,0,0,384.42,138.05Z" style="fill:#263238"></path><path d="M367.44,157.52h.22l.24,0,.13,0h0l.07,0h0l.09-.08,0,0c0-.06.13-.16.13-.23s0,.08,0,0l0-.08c0-.05,0-.1,0-.15v0a18.36,18.36,0,0,1-.37-7.41,21.94,21.94,0,0,1,5.51-1.64h0s0,0,0-.05,0-.1,0-.15a.83.83,0,0,0,0-.15h0a2.26,2.26,0,0,0,0-.26.57.57,0,0,0,0-.13h0v0c0-.08,0-.16-.05-.25s0-.1-.05-.15a20.56,20.56,0,0,0-5.38,1.5c0-.06,0-.11,0-.17.55-5.39,1.12-11-4.08-13.86a10.38,10.38,0,0,0-7.8-.81,30.43,30.43,0,0,0-5.56,2.06c-.06-5.41-.22-11-6.15-14.41-4-2.32-10-1-17.8,3.8-.51.31-1,.64-1.51,1-.08-.42-.17-.84-.25-1.26-1.12-5.63-2.08-10.49-5.4-11.56a.59.59,0,0,0-.75.38.6.6,0,0,0,.39.75c2.66.85,3.6,5.61,4.6,10.66.12.58.23,1.16.35,1.74a79.48,79.48,0,0,0-7.89,6.17.59.59,0,0,0,.8.87,78.24,78.24,0,0,1,7.35-5.78c1.3,6,3.22,12,8.68,13.4h0c5.38,1.41,10.6-1.1,15.65-3.53l.73-.35c.08,4.7.57,9.38,5.2,12.52,4.16,2.82,8.29,1.62,12,.2A17.48,17.48,0,0,0,367.44,157.52ZM329,136.43c-1.7-2.53-2.63-6-3.37-9.55,3.82-2.55,8.39-5,12.43-5.75Zm4.17,3.32a7.58,7.58,0,0,1-3.4-2.31L339.49,121a8,8,0,0,1,4.55.94l.68.42Zm6,.21a12.82,12.82,0,0,1-4.82.08l11.32-17a9.51,9.51,0,0,1,2.41,3,.53.53,0,0,0-.25.22l-8.58,13.5A.5.5,0,0,0,339.16,140Zm9.22-3.54a49.6,49.6,0,0,1-7.66,3.17l7.88-12.42c.94,2.54,1,5.45,1,8.45v.21Zm2.41.16c3.15-1.47,6.18-2.68,9-2.56L352,144.44A20.64,20.64,0,0,1,350.79,136.58Zm1.75,9,.06,0,8.54-11.31a.21.21,0,0,0,0-.06,8.24,8.24,0,0,1,2.39.88,9.13,9.13,0,0,1,.92.6L355,148.29A9.45,9.45,0,0,1,352.54,145.6Zm6.21,4.44a8.48,8.48,0,0,1-2.83-1.09l9.46-12.5a7.07,7.07,0,0,1,1.64,3.09l-8.17,10A.58.58,0,0,0,358.75,150Zm1.08.13,7.46-9.11a32.81,32.81,0,0,1-.24,6.71c0,.26-.06.51-.08.77A17.59,17.59,0,0,1,359.83,150.17Z" style="fill:#455a64"></path><path d="M367.38,141.73a4.51,4.51,0,1,1,4.51-4.5A4.51,4.51,0,0,1,367.38,141.73Zm0-8a3.51,3.51,0,1,0,3.51,3.51A3.51,3.51,0,0,0,367.38,133.72Z" style="fill:#D1001C"></path><rect x="366.88" y="119.12" width="1" height="14.1" style="fill:#D1001C"></rect><path d="M335.8,145.57a4.51,4.51,0,1,1,4.51-4.51A4.51,4.51,0,0,1,335.8,145.57Zm0-8a3.51,3.51,0,1,0,3.51,3.5A3.5,3.5,0,0,0,335.8,137.56Z" style="fill:#D1001C"></path><polygon points="329.59 149.9 326.27 149.9 326.27 148.9 329.18 148.9 333.99 144.09 334.69 144.79 329.59 149.9" style="fill:#D1001C"></polygon><path d="M361.13,112.26a91.46,91.46,0,0,1,13.65,0,90.14,90.14,0,0,1-13.65,0Z" style="fill:#263238"></path><path d="M361.13,114.56a91.46,91.46,0,0,1,13.65,0,90.14,90.14,0,0,1-13.65,0Z" style="fill:#263238"></path><path d="M361.13,116.86a36.72,36.72,0,0,1,8.64,0,35.68,35.68,0,0,1-8.64,0Z" style="fill:#263238"></path><path d="M314.55,146.92a51.78,51.78,0,0,1,10.34,0,52.54,52.54,0,0,1-10.34,0Z" style="fill:#263238"></path><path d="M314.55,149.22a36.72,36.72,0,0,1,8.64,0,36.72,36.72,0,0,1-8.64,0Z" style="fill:#263238"></path></g><g id="freepik--character-2--inject-5"><path d="M532.72,452h90.42c.3-1.62.59-3.22.87-4.83s.64-3.47,1-5.19c.24-1.38.49-2.75.74-4.1.12-.68.25-1.35.36-2,.5-2.67,1-5.31,1.44-7.87.12-.64.24-1.28.34-1.92,0-.1,0-.21.07-.31.23-1.35.48-2.67.72-4,.05-.29.1-.57.16-.85.5-2.78,1-5.45,1.46-8,.06-.43.14-.84.22-1.25.32-1.78.62-3.5.94-5.19.17-.86.31-1.7.46-2.55.46-2.5.9-4.88,1.3-7.12h0c.06-.29.09-.58.16-.85,0,0,0,0,0,0,.07-.44.16-.89.24-1.32s.17-.84.25-1.25h0c.29-1.62.56-3.15.81-4.58a.44.44,0,0,1,0-.1l.34-1.86.32-1.74c.06-.38.13-.76.2-1.11v0c.11-.5.19-1,.27-1.47s.16-.86.23-1.26.1-.6.16-.87c.18-1,.33-1.81.47-2.57.09-.5.17-.95.25-1.35,0-.25.08-.49.12-.7a2.47,2.47,0,0,1,.06-.29,2,2,0,0,1,.07-.41l0-.19c0-.12,0-.22.05-.29s0-.07,0-.1l0-.14H551.85S543.24,408.38,532.72,452Z" style="fill:#263238"></path><path d="M609.74,452H611q6.36-33.62,12.59-67.27c0-.2-.26-.29-.3-.09Q616.45,418.29,609.74,452Z" style="fill:#37474f"></path><path d="M568.23,374.22l2.95,30.27v.07l.63,6.34h0l.72,7.3v0l.14,1.43.13,1.32,3,31h47.31c.3-1.62.59-3.22.87-4.83s.64-3.47,1-5.19c.24-1.38.49-2.75.74-4.1.12-.68.25-1.35.36-2,.5-2.67,1-5.31,1.44-7.87.12-.64.24-1.28.34-1.92,0-.1,0-.21.07-.31.23-1.35.48-2.67.72-4,.05-.29.1-.57.16-.85.49-2.77,1-5.44,1.46-8,.06-.43.14-.84.22-1.25.32-1.78.62-3.5.94-5.19.17-.86.31-1.7.46-2.55.46-2.5.9-4.88,1.3-7.12h0c.06-.29.09-.58.16-.85,0,0,0,0,0,0,.07-.44.16-.89.24-1.32s.15-.85.23-1.27v0c.3-1.61.57-3.12.83-4.55a.44.44,0,0,1,0-.1l.34-1.86.32-1.74c.06-.38.13-.76.2-1.11v0c.11-.5.19-1,.27-1.47s.16-.86.23-1.26.1-.6.16-.87c.18-1,.33-1.81.47-2.57.09-.5.17-.95.25-1.35,0-.25.08-.49.12-.7a2.47,2.47,0,0,1,.06-.29,2,2,0,0,1,.07-.41l0-.19c0-.12,0-.22.05-.29s0-.07,0-.1l0-.14Z" style="fill:#37474f"></path><path d="M553.69,374.22c8.19,18.18,12.14,37.51,16.09,42.54v0a22.36,22.36,0,0,0,2.89,2.86c6.16,5.31,17.61,12.09,17.61,12.09,0,.2,0,.4,0,.6h0c.17,6.28.32,12.84.45,19.61h99.07c1.7-16.63.14-42.9-10.9-77.75Z" style="fill:#263238"></path><path d="M567,415.5c5.84,2.39,11.08,6.06,16.26,9.6,5.38,3.68,10.31,7.93,15.49,11.88.2.15,0,.48-.21.34-5.46-3.49-11.17-6.55-16.56-10.14s-10.69-6.87-15.24-11.25C566.52,415.76,566.72,415.4,567,415.5Z" style="fill:#37474f"></path><path d="M566.22,381.77c.7,3.73,1.6,7.43,2.41,11.14.76,3.48,1.31,7,2.23,10.48a17.9,17.9,0,0,0,4.88,8.78c1.37,1.27,2.88,2.4,4.33,3.56.79.63,1.64,1.23,2.45,1.86-.1-.49-.19-1-.28-1.5-.25-1.41-.49-2.83-.73-4.25-.52-3.14-1-6.29-1.51-9.45-1-6.19-1.82-12.45-3.11-18.59a.2.2,0,0,1,.39-.09c1.54,6.07,3.24,12.09,4.59,18.22.66,3,3,17.85,3.11,18.9s.2,2.17.24,3.26a12.8,12.8,0,0,1,0,3.33c-.06.28-.39.23-.5.05h0a13.19,13.19,0,0,1-.94-3.23c-.27-1.06-.51-2.13-.7-3.21-.07-.39-.13-.78-.18-1.18-1.46-.89-2.82-2.07-4.19-3.06s-3-2.1-4.37-3.27A16.76,16.76,0,0,1,569,405.2a61.06,61.06,0,0,1-1.75-10.67c-.47-4.22-.81-8.46-1.4-12.66C565.8,381.62,566.18,381.52,566.22,381.77Z" style="fill:#37474f"></path><path d="M666,407.77c-1.57-.81-7.63.64-18.67-1.25a12.71,12.71,0,0,1-6-2.42c-2.87-2.35-5-6.12-6.79-9.35a48.06,48.06,0,0,1-4.75-11.55c-.06-.24-.41-.12-.37.11.41,2.29.64,4.57,1.24,6.83a43.06,43.06,0,0,0,2.28,6.2c1.67,3.74,3.62,7.76,7,10.29,3.52,2.66,8.44,3.15,12.71,3.45,2.47.17,12.15-.09,13.45-1.47A.54.54,0,0,0,666,407.77Z" style="fill:#37474f"></path><path d="M602.86,238c-25.15,15.84-70.39,38-87.57,39.41-19.11,1.54-46.17-49.44-64.37-81-3.61-6.26,43.29-37.38,46.81-30.49,9.19,18,26.84,57.94,31.25,59.07,3.61.93,41-4.58,62.08-7.93C624.6,211.76,620.57,226.84,602.86,238Z" style="fill:#eb9481"></path><path d="M505.22,177.6l-48.31,38.54S491.2,274.68,509,278.51s74.6-26,93.55-39.35S622,213.24,596.83,216s-64.37,7.72-67.5,6.28S505.22,177.6,505.22,177.6Z" style="fill:#ebebeb"></path><path d="M468.31,229.31c17.35-18.1,38.33-34.5,41.78-37.62.17-.15.38.13.21.27-3.55,2.88-25.49,24.22-41.76,37.65C468.35,229.77,468.15,229.48,468.31,229.31Z" style="fill:#263238"></path><path d="M494.75,268.81c5.07,5.1,10,8.79,14.27,9.7,17.83,3.83,74.6-26,93.55-39.35,8.1-5.72,12.84-11.28,13.62-15.58C587.12,234.51,519.27,259.72,494.75,268.81Z" style="fill:#c7c7c7"></path><path d="M457.32,207.61C455,202,436.17,177,435.54,156.28c-.24-7.91-.77-30.7,5.22-31.79s6.57,5.58,6.57,5.58,1.45-10.57,7.59-10.19c4.9.31,6.21,9.67,6.21,9.67s2.2-11.51,8.24-10.35c5.51,1.06,4.37,11.5,4.37,11.5s3.59-5.57,8.7-3.52c6.14,2.45.5,14.93,1.84,23.58.3,2,19.77,31.67,19.77,31.67Z" style="fill:#455a64"></path><path d="M474.21,130.47c-2.4,12.62-3,17.91.34,29.79.07.24-.26.39-.35.15-4.36-11.34-4.07-17.67-.56-30.14C473.81,129.67,474.32,129.89,474.21,130.47Z" style="fill:#263238"></path><path d="M461.23,129.62c-2.6,12.81-1.81,19,.8,31.74,0,.18-.26.27-.31.09-3.6-12.25-5.16-19.55-.88-32C461,128.87,461.35,129,461.23,129.62Z" style="fill:#263238"></path><path d="M447.46,130.71c-1.62,12.59-1.36,19.61,2.76,31.62a.23.23,0,0,1-.43.17c-5.39-11.83-5.79-20.59-2.72-31.8C447.28,129.93,447.56,129.91,447.46,130.71Z" style="fill:#263238"></path><path d="M504.05,182.43s-.29-16.59-2.54-23.3-.89-21-6.63-23c-6.45-2.23-13.9,10.48-10,22.47,0,0-17,11.87-13.75,23.56S504.05,182.43,504.05,182.43Z" style="fill:#455a64"></path><path d="M484.86,159.94c-6.77,4.39-13.63,12.51-13.52,20.56a.19.19,0,0,1-.37,0c-1.29-8.61,6.56-18.09,12.85-21.64C485,158.21,486.61,158.8,484.86,159.94Z" style="fill:#263238"></path><g style="opacity:0.7000000000000001"><path d="M434.08,185.67V122.83s42.73,23.44,43.41,23.44h23.95v16.08H477.49C476.78,162.35,434.08,185.67,434.08,185.67Z" style="fill:#fff"></path><path d="M434.08,185.67l-.38-62.84v-.64l.57.3L462.8,138c4.77,2.55,9.53,5.16,14.32,7.6l.43.2.05,0a.16.16,0,0,0-.1,0h15.82l8.12,0h.47v.48l0,16.08v.44h-.44l-8.11,0-4.06,0H477.55l0,0-.43.19c-4.82,2.41-9.58,5-14.36,7.51Zm0,0c9.45-5.26,18.88-10.55,28.37-15.73,4.76-2.58,9.48-5.2,14.31-7.68.16-.07.3-.15.49-.22l.08,0,.17,0h1.4l10.37,0,4.06,0,8.11,0-.44.45,0-16.08.48.47-8.12,0H477.47a.65.65,0,0,1-.21,0l-.07,0-.5-.23c-4.84-2.48-9.56-5.09-14.33-7.67-9.5-5.18-19-10.36-28.46-15.62l.56-.33Z" style="fill:#263238"></path><path d="M499.77,146.44a1.65,1.65,0,1,1-.5,1.19A1.68,1.68,0,0,1,499.77,146.44Z" style="fill:#263238"></path><path d="M497.91,146.44a1.65,1.65,0,0,1,0,2.37,1.65,1.65,0,0,1,0-2.37Z" style="fill:#263238"></path><path d="M496.06,146.44a1.65,1.65,0,0,1,0,2.37,1.63,1.63,0,0,1,0-2.37Z" style="fill:#263238"></path><path d="M494.35,146.44a5.47,5.47,0,0,1,.5,2.37,5.13,5.13,0,0,1-.5,2.36,5.13,5.13,0,0,1-.5-2.36A5.19,5.19,0,0,1,494.35,146.44Z" style="fill:#263238"></path><path d="M491.92,146.44a1.65,1.65,0,0,1,0,2.37,1.63,1.63,0,0,1-.5-1.18A1.68,1.68,0,0,1,491.92,146.44Z" style="fill:#263238"></path><path d="M490.06,146.44a1.63,1.63,0,0,1,0,2.37,1.65,1.65,0,0,1,0-2.37Z" style="fill:#263238"></path><path d="M488.21,146.44a1.65,1.65,0,0,1,0,2.37,1.63,1.63,0,0,1,0-2.37Z" style="fill:#263238"></path></g><path d="M437.26,179.48V137.87l39.39,21.44Z" style="fill:#D1001C"></path><path d="M545.83,390l144.58,8.62s-13.56-130.9-60.81-181.37c-5.83-6.24-20.32-6.31-30.14-2.53-3.5,1.35-16.14,18-21.07,33.61S545.5,389.51,545.83,390Z" style="fill:#455a64"></path><path d="M629.6,217.27s-19.15,57.42-20.19,65.94-23,168.75-23,168.75H698.85s-8.44-120.84-34.47-179.79C639.39,215.58,629.6,217.27,629.6,217.27Z" style="fill:#ebebeb"></path><path d="M630.48,218.05c.73,3.76,1.41,7.54,2.09,11.31l2,11.32q2,11.34,3.82,22.68l.11.69-.64.31q-6.54,3.19-13.12,6.29l.51-1.39,7.32,16.1.25.53-.33.49q-7.05,10.46-14.27,20.8c-2.41,3.44-4.83,6.89-7.28,10.3s-4.89,6.85-7.4,10.22c2.17-3.6,4.42-7.15,6.64-10.73s4.5-7.11,6.77-10.65q6.84-10.6,13.82-21.11l-.08,1-7.35-16.09-.43-.95.94-.44q6.6-3.09,13.22-6.09l-.53,1q-1.66-11.39-3.19-22.79l-1.48-11.4C631.4,225.66,630.91,221.86,630.48,218.05Z" style="fill:#dbdbdb"></path><path d="M664.33,376.12a221.28,221.28,0,0,1-25.64,2c-12,0-23.91-1.16-27.34-1.21-.32,0-.47,1-.26,1,4.48.57,18.24,1.94,27.38,1.94s21.35-1.45,25-2.36c-.05,2.54-.05,4.52-.05,7.06-8.46,1.63-24.78,4.47-51.14,1.08-.08-1.08.07-6.72-.17-8.28,0-.23-1-.28-1.05.08-.21,1.53-.83,15.13-.85,17.89,0,6.81.4,26,2.1,29.77,3.84,8.44,20.26,8.46,24.81,8.5s19.21.49,24.7-4.88c2.93-2.87,3.57-18.46,3.14-32.24C664.73,389.9,664.72,376.24,664.33,376.12Zm-25.92,55.77c-14.52,0-20.84-3-23.08-6.06-2.61-3.54-2.83-9.69-3-16.49-.15-5.33,0-22,0-22.39,8.47,1.71,30.81,4,51.11-.68,0,7.92.05,14.25.06,22.18,0,5.75-.36,15.37-3.27,18.72C657.77,430,648.92,431.87,638.41,431.89Z" style="fill:#dbdbdb"></path><path d="M597.88,215.16S581.75,270,580.77,278.08,548.84,452,548.84,452H528.06S572,265.09,577.44,247.34,597.88,215.16,597.88,215.16Z" style="fill:#ebebeb"></path><path d="M596.64,218.05c-1.58,2.82-3.21,5.62-4.83,8.42s-3.24,5.59-4.9,8.37q-4.92,8.35-10,16.63l-.05-1.17c2.24,2.69,4.45,5.41,6.65,8.13l.52.66-.49.7L574.92,272l.21-.63c-.22,7.68-.53,15.35-.88,23-.18,3.84-.37,7.68-.6,11.51s-.44,7.68-.74,11.52c-.1-3.84-.1-7.68-.14-11.52s0-7.68,0-11.52c.06-7.68.16-15.36.35-23V271l.2-.28,8.62-12.2,0,1.35c-2.18-2.74-4.35-5.49-6.49-8.28l-.43-.56.37-.6q5.19-8.17,10.48-16.27c1.75-2.71,3.54-5.39,5.32-8.07S594.82,220.71,596.64,218.05Z" style="fill:#dbdbdb"></path><polygon points="604.63 249.37 601.03 238.55 591.18 246.08 592.21 253.97 599.97 255.98 604.63 249.37" style="fill:#D1001C"></polygon><polygon points="599.97 255.98 592.45 345.06 578.34 371.66 570.68 340.73 592.21 253.97 599.97 255.98" style="fill:#D1001C"></polygon><g style="opacity:0.7000000000000001"><path d="M545.06,297.91a33.3,33.3,0,1,1-41.94-32.24l.09-27h-2.69v-5.29l22.82.05v5.29h-2.7l-.11,27A33.28,33.28,0,0,1,545.06,297.91Z" style="fill:#fff"></path><path d="M545.06,297.91a33.31,33.31,0,0,1-18.59,29.86,33.5,33.5,0,0,1-47.68-36.49,33.33,33.33,0,0,1,8.39-16.44A33.79,33.79,0,0,1,503,265.29l-.29.38,0-13.48.08-13.48.38.39h-3.07v-.38l0-5.29v-.37h.37l22.82.16h.26v.26l0,5.29V239h-2.93l.22-.22-.26,27-.05-.06a33.31,33.31,0,0,1,24.51,32.25Zm0,0a33.28,33.28,0,0,0-24.54-32.13h0v0l0-27v-.21h.21l2.7,0-.23.23,0-5.29.26.26-22.82.06.37-.37v5.29l-.38-.38h3.08v.39l0,13.48-.07,13.48v.3l-.29.08a33.07,33.07,0,1,0,23.2,61.61,33.22,33.22,0,0,0,18.64-29.76Z" style="fill:#263238"></path></g><path d="M484.44,297.79s-.73-18.9,18.53-25.23" style="fill:#fff"></path><path d="M539.21,300.59a27.59,27.59,0,0,1-54.89,0Z" style="fill:#D1001C"></path><path d="M533,292.14a2.51,2.51,0,1,1-2.51-2.51A2.5,2.5,0,0,1,533,292.14Z" style="fill:#D1001C"></path><path d="M520.14,297.79a1.62,1.62,0,1,1-1.62-1.62A1.61,1.61,0,0,1,520.14,297.79Z" style="fill:#D1001C"></path><path d="M500.23,288.92a1.62,1.62,0,1,1-1.61-1.62A1.61,1.61,0,0,1,500.23,288.92Z" style="fill:#D1001C"></path><path d="M523.92,286.06a1.24,1.24,0,1,1-1.24-1.23A1.23,1.23,0,0,1,523.92,286.06Z" style="fill:#D1001C"></path><path d="M491.87,297.79a1.24,1.24,0,1,1-1.23-1.24A1.23,1.23,0,0,1,491.87,297.79Z" style="fill:#D1001C"></path><path d="M496,296.76a.5.5,0,0,1-.5.51.51.51,0,0,1-.51-.51.5.5,0,0,1,.51-.5A.5.5,0,0,1,496,296.76Z" style="fill:#D1001C"></path><path d="M626.64,242.4c-4.47,12.21-21.51,97.73-18.37,105.56,4.89,12.24,22.13,42.32,45.43,21.85,16.14-14.17,5.34-88.08-2.17-120.32C646.87,229.51,634.63,220.59,626.64,242.4Z" style="fill:#ebebeb"></path><path d="M591.1,296.45c-7.18-1.52-47.25,36.28-38.75,42.94,40,31.32,78.54,36.14,88.54,35.14,13.1-1.31,20-16.25,17.92-24.62C655.84,337.78,598.21,298,591.1,296.45Z" style="fill:#eb9481"></path><path d="M596.71,299.55s-17.22-15.12-28.84-25.19c-6.49-5.61-18.47-14.24-25.12-16.19-10-2.91-53.41-8.72-55.05,1.79-1.48,9.51,36.5,9.76,36.5,9.76s-38.3-3.64-38,8.14,43.27,6.36,43.27,6.36-39.43-2.86-37.18,9.24c1.7,9.14,40.88,6.42,40.88,6.42s-33.91-2.22-32.57,7.26c1.49,10.47,37.81,10.23,37.81,10.23,7.48,23.51,22.31,35.69,35.44,35.92C576.56,353.34,596.71,299.55,596.71,299.55Z" style="fill:#455a64"></path><path d="M537.52,270.13c-4.48-.59-9-1.21-13.53-1.4s-9-.23-13.57,0c-11.08.57-17.93,2.66-17.5,2.58,10.34-2,26.54-1.53,31.06-1.34s9,.15,13.54.34C537.64,270.31,537.63,270.15,537.52,270.13Z" style="fill:#263238"></path><path d="M537.13,286.47c-5.75-.51-11.45-1.22-17.23-1.47s-11.23,0-17,.16c-.44,0-.29.24.15.25,5.76.08,11.08.61,16.83.76s11.52.08,17.24.44A.07.07,0,0,0,537.13,286.47Z" style="fill:#263238"></path><path d="M539.32,300.55c-8.76-1.22-17.73-.83-26.53-.24-.43,0-.2.32.24.31,8.82-.09,15.74-.22,26.25.23C539.44,300.86,539.51,300.58,539.32,300.55Z" style="fill:#263238"></path><path d="M596.25,294.73l-39.17,59.61s69.29,26.58,86.73,21,19.29-23.2,14.32-29.54C647.39,332.15,596.25,294.73,596.25,294.73Z" style="fill:#ebebeb"></path><path d="M575.39,355.15c12.39-21.8,28.71-42.84,31.3-46.7.12-.19.4,0,.27.21-2.74,3.66-18.78,29.72-31.27,46.73C575.54,355.58,575.27,355.36,575.39,355.15Z" style="fill:#263238"></path><path d="M606.81,302.59c13.23,9.2,26.26,18.88,37.85,30.12l-2.34-1.93c-11.48-9.23-24.13-18.79-35.51-28.19Z" style="fill:#263238"></path><path d="M597.9,368.14a238,238,0,0,0,28.58,6.94,62.18,62.18,0,0,0,9.7.91,26.13,26.13,0,0,0,17.44-7.17,22.36,22.36,0,0,0,5.23-8c1.08-3,1.11-6.36,1.42-9.53a348.57,348.57,0,0,0-.16-39.19,359.79,359.79,0,0,0-4.05-39,342,342,0,0,1,5.58,58.61c.08,6.55,0,13.11-.38,19.67-.3,3.3-.35,6.63-1.51,9.81-3.55,9.49-13.62,15.57-23.57,15.59-13.14-.61-25.82-4.72-38.28-8.64Z" style="fill:#263238"></path><path d="M658,276.1a14,14,0,0,1-.23,7.48c.19-2.51,0-5,.23-7.48Z" style="fill:#263238"></path><path d="M612.76,307.08c2.06-14.09,4.81-28.17,8.21-42-2.06,14.1-4.81,28.17-8.21,42Z" style="fill:#263238"></path><path d="M618.57,268.83a54.09,54.09,0,0,1,0,7.95,12.86,12.86,0,0,1,0-7.95Z" style="fill:#263238"></path><path d="M602.6,239.53c8.14,1.74,21.77-10.95,27-21.1.36-.69-.85-7.92-1.91-16.77-.63-5.37-1.19-11.36-1.32-16.87,0-1.13-34.36,9.16-34.36,9.16s3.65,11.47,3.81,21.07a12.64,12.64,0,0,1-.19,2.27,3.22,3.22,0,0,0,0,.37C595,222,594.73,237.85,602.6,239.53Z" style="fill:#eb9481"></path><path d="M626.86,193.17c-12,18.83-27.68,17.78-31.31,17.24A96.54,96.54,0,0,0,592,194s34.35-10.29,34.36-9.16C626.47,187.51,626.64,190.36,626.86,193.17Z" style="fill:#263238"></path><path d="M640.42,146.8c1.79,12.68-10.08,46.65-19.92,53.1-14.25,9.35-34.86,7.22-42.11-9.29-7-16,9.23-60,20-65.57C614.15,116.82,637.76,128.06,640.42,146.8Z" style="fill:#eb9481"></path><path d="M602.68,164.69c.05-.09.15.17.11.26-.86,2.27-1.47,5,.35,6.48.05,0,0,.16-.07.12C600.67,170.33,601.5,166.69,602.68,164.69Z" style="fill:#263238"></path><path d="M605.55,163c3.79,1,1.53,8.48-2,7.56S602.38,162.17,605.55,163Z" style="fill:#263238"></path><path d="M589.22,160.11c0-.1-.21,0-.24.15-.63,2.34-1.73,4.92-4.07,5.06-.07,0-.1.12,0,.13C587.56,165.87,589,162.43,589.22,160.11Z" style="fill:#263238"></path><path d="M587.88,157.06c-3.65-1.41-6.2,6-2.82,7.3S590.94,158.24,587.88,157.06Z" style="fill:#263238"></path><path d="M609.81,160.74a30.76,30.76,0,0,1-2.87-1.44c-1.1-.57-2-.9-2.65-2a1.65,1.65,0,0,1,.51-2c1.3-.89,2.81-.53,4.16.1a6,6,0,0,1,3.12,3A1.77,1.77,0,0,1,609.81,160.74Z" style="fill:#263238"></path><path d="M585.57,152.88a31.31,31.31,0,0,0,3.21.12,5.13,5.13,0,0,0,3.3-.5,1.65,1.65,0,0,0,.49-2c-.71-1.4-2.21-1.81-3.69-1.91a6,6,0,0,0-4.19,1.14A1.77,1.77,0,0,0,585.57,152.88Z" style="fill:#263238"></path><path d="M599.08,186.08a3.68,3.68,0,0,1-2.36.78,6.44,6.44,0,0,1-2.32-1.34c-.07-.05-.17,0-.14.09a3.27,3.27,0,0,0,2.57,2.15,2.58,2.58,0,0,0,2.44-1.51C599.35,186.13,599.18,186,599.08,186.08Z" style="fill:#263238"></path><path d="M598.73,178.4a8.28,8.28,0,0,1-6.33,1.93,10.69,10.69,0,0,1-2.88-.73,2.83,2.83,0,0,1-.53-.23,4.15,4.15,0,0,1-.48-.23.6.6,0,0,1-.31-.66h0a.8.8,0,0,1,.1-.23v0l.07-.2c.49-1.81,1.48-4.47,1.48-4.47-.75.13-4.53.62-4.2-.29,2.79-7.59,5.89-16,10.27-23a.22.22,0,0,1,.4.19c-2.39,7.4-6.07,14.33-8.59,21.73a14.29,14.29,0,0,1,4.08,0c.23.15-2,5.11-2.17,5.94a.31.31,0,0,0,0,.09c2.89,1.29,5.42,1.06,9-.08C598.79,178,598.93,178.26,598.73,178.4Z" style="fill:#263238"></path><path d="M634.55,173.21c-8.79-1.07-11.32-12.29-7.67-20.22,0,0-23.66-1.42-21.17-20.15,0,0-7.17,7.3-17.69,5.54l-2.82,6.19c-2.24-1.15-3.45-8.36,3.36-12.51,0,0,2.19-9.15,10.07-13.37a12.86,12.86,0,0,1,13.94.73,19.4,19.4,0,0,1,14.57-.73c8.29,2.74,10.28,11.16,10.28,11.16s11,4.41,11.38,12.9a17.13,17.13,0,0,1-4.88,13.12s2.24,3.75-.56,10.39C641.56,170.54,637.19,173.54,634.55,173.21Z" style="fill:#263238"></path><path d="M606.54,131.29a22,22,0,0,0-.93,4.52,18.07,18.07,0,0,0,0,4.53,11.85,11.85,0,0,0,4,7.69c2.18,2.08,5.2,2.92,8.09,3.78,1.5.25,3,.6,4.53.76s3.06.24,4.61.42c-1.54.07-3.1.07-4.66.11s-3.1-.32-4.66-.47c-3-.72-6.18-1.6-8.63-3.78a12.43,12.43,0,0,1-4.16-8.42A18.8,18.8,0,0,1,606.54,131.29Z" style="fill:#263238"></path><path d="M592.57,139.69a24.48,24.48,0,0,0,7.73-2.41,14.63,14.63,0,0,0,3.24-2.29,17.75,17.75,0,0,0,2.62-3.13,9.84,9.84,0,0,1-2,3.7,11,11,0,0,1-3.34,2.68,13.69,13.69,0,0,1-4,1.37A12.88,12.88,0,0,1,592.57,139.69Z" style="fill:#263238"></path><path d="M618.83,162.19s18.87,7.34,22,11.2c1.27,1.58-1.74,8.36-3.14,9-.88.4-10.63-6.34-21.77-10C615.91,172.4,619.11,166.86,618.83,162.19Z" style="fill:#a6a6a6"></path><path d="M577.47,165.19a9.62,9.62,0,0,0,.75,1.16c1.11,1.46,2.66,2.23,5.44,1.76,1.82-.31,3.34-1.93,6.21-1.38a9.89,9.89,0,0,1,4.86,2.24,28.28,28.28,0,0,1,2.57,2.43c.21.2.41.42.61.63a6.5,6.5,0,0,0,.6.57,9.15,9.15,0,0,0,1,.76c4.11,2.65,11.23,3.33,14.13,1.53,2.65-1.65,5-6.91,5.14-12.17a17.06,17.06,0,0,0-.24-3.36,13.18,13.18,0,0,0-1-3.16c-.09-.18-.17-.36-.27-.53a7.74,7.74,0,0,0-.91-1.34c-2.38-2.9-7.21-5.47-12.55-7.2-.54-.18-1.08-.35-1.63-.51-1.19-.34-2.4-.64-3.59-.9-1.39-.29-2.77-.53-4.12-.69-4.76-.58-9-.24-11.36,1.35a11.42,11.42,0,0,0-3.78,4.76,20.48,20.48,0,0,0-1.1,2.79,26.88,26.88,0,0,0-1.21,9.42A5.32,5.32,0,0,0,577.47,165.19Z" style="fill:#fff;opacity:0.2"></path><g style="opacity:0.2"><path d="M577.47,165.19a9.62,9.62,0,0,0,.75,1.16l11.65-4.7a1.6,1.6,0,0,0,.89-2.08,1.63,1.63,0,0,0-1.77-1,1.92,1.92,0,0,0-.32.09l-11.6,4.68A5.32,5.32,0,0,0,577.47,165.19Z" style="fill:#fff"></path><path d="M594.73,169a28.28,28.28,0,0,1,2.57,2.43l21.51-8.68a17.06,17.06,0,0,0-.24-3.36Z" style="fill:#fff"></path><path d="M601.86,161.36a1.09,1.09,0,0,0,1.19.67.9.9,0,0,0,.22-.06l14.32-5.77c-.09-.18-.17-.36-.27-.53a7.74,7.74,0,0,0-.91-1.34L602.46,160A1.09,1.09,0,0,0,601.86,161.36Z" style="fill:#fff"></path><path d="M578.28,153.93l20.36-8.21c-1.39-.29-2.77-.53-4.12-.69l-15.14,6.11A20.48,20.48,0,0,0,578.28,153.93Z" style="fill:#fff"></path><path d="M582,155.36a.55.55,0,0,0,.59.33l.12,0,21.14-8.53c-.54-.18-1.08-.35-1.63-.51l-19.92,8A.54.54,0,0,0,582,155.36Z" style="fill:#fff"></path><path d="M598.51,172.6a9.15,9.15,0,0,0,1,.76l10.91-4.4a.54.54,0,0,0-.29-1l-.12,0Z" style="fill:#fff"></path></g><path d="M597.53,172.42c-3.64-3.61-5-4.8-7.73-5.16a7.52,7.52,0,0,0-4,.74,9.57,9.57,0,0,1-2,.64c-3.28.56-5.94-.73-6.79-3.28-1.25-3.74-.28-15.24,5.89-19.43,3.75-2.54,11.49-1.86,17.49-.37,6.48,1.59,14.93,5.14,17.46,9.86h0c3.75,7,.28,16.91-3.81,19.9a7.9,7.9,0,0,1-3.37,1.32A16.21,16.21,0,0,1,597.53,172.42Zm19.32-16.49c-1.94-3.63-8.52-7.29-16.77-9.33-7.37-1.82-13.74-1.73-16.62.22-5.66,3.84-6.62,14.79-5.48,18.2.82,2.44,3.42,2.92,5.59,2.56a9.07,9.07,0,0,0,1.79-.58,8.57,8.57,0,0,1,4.59-.81c3.13.42,4.82,2,8.34,5.46,4,3.93,11.57,5.34,15.06,2.79,3.81-2.77,6.89-12.17,3.5-18.51Z" style="fill:#a6a6a6"></path><path d="M625.33,177.49s9.88-9.87,14.49-6.16-4.21,19-10.61,20.18a6.2,6.2,0,0,1-7.6-4.74Z" style="fill:#eb9481"></path><path d="M637.18,175.65a.09.09,0,0,1,0,.17c-4.52,1-7.42,4.47-9.69,8.24,1.52-1.34,3.38-1.89,5.2,0,.1.1,0,.25-.15.21a3.8,3.8,0,0,0-4.37.58,18,18,0,0,0-2.57,3c-.26.34-.91,0-.69-.39a.41.41,0,0,0,.05-.09C625.82,181.94,631.33,175.17,637.18,175.65Z" style="fill:#263238"></path><path d="M595.83,215.65l5.7,19.68,27.9-20.44,4.2,9.58s-28.16,32.53-28,30.88l-5.35-16.59-12.73,9.05,5-26.81Z" style="fill:#455a64"></path><path d="M589.18,234.41c1-4.39,1.84-8.85,3-13.2,0-.15.3-.18.32,0,.27,4.43-3.57,21.23-4.17,25.3l.06,0c.53-.39,11.72-7.88,11.8-7.72,1.3,2.7,5.23,14.79,5.46,15.87,4.46-5.17,23.11-25.39,28.18-30.15.14-.13.38,0,.25.2-4.08,5.55-28.28,32.3-28.54,32.18-.22.11-5.13-14.79-5.57-17.53-2,1.7-13.42,10.33-13.35,9.66A136.28,136.28,0,0,1,589.18,234.41Z" style="fill:#263238"></path></g><g id="freepik--character-1--inject-5"><path d="M312.34,308.22a85.85,85.85,0,0,1-14.89,11c6.93-14.19,1.48-43.45,1-39.11-2.31,20.75-13.53,44.63-18.82,46.43a.24.24,0,0,0-.09,0c-14.38,3.6-28.13,1.87-40-2.12a.26.26,0,0,1,0-.08c9.22-16.23,4.57-46.1,4.06-44.18-5.54,20.62-21.06,34.29-24,34.65h0c-12.28-7.82-19.39-16.3-18-17.44,10.43-8.34,17.66-27.24,23.8-47v0c6.08-19.5,7.38-47.53,17.25-65.52,9-16.47,30.88-22.25,44.54-16.25C323.08,184.33,318.71,302.42,312.34,308.22Z" style="fill:#263238"></path><path d="M284.8,167.66a22.36,22.36,0,0,1,8.07,4.34,47.59,47.59,0,0,1,6.36,6.25A76.5,76.5,0,0,1,308.47,193c5.13,10.33,8.66,31.45,10.48,42.63a176.42,176.42,0,0,1,1.63,33.91c-.1,2.83-.38,5.66-.56,8.49l-.84,8.47L318,294.93l-1.49,8.4.92-8.45.73-8.46.54-8.45c.08-2.82.26-5.64.26-8.45a192.49,192.49,0,0,0-2.06-33.61c-1.62-11.1-5.18-32-9.85-42.36a77.47,77.47,0,0,0-8.6-14.78,46.51,46.51,0,0,0-5.92-6.42,29.77,29.77,0,0,0-3.57-2.69A16.22,16.22,0,0,0,284.8,167.66Z" style="fill:#263238"></path><path d="M199.87,294.51a145.66,145.66,0,0,0,8.07-13c2.51-4.41,4.83-8.89,6.91-13.46s4-9.17,5.6-13.86,3-9.47,4.54-14.21c3.15-9.46,5.66-28.94,9.43-38.26,1.91-4.65,3.92-9.29,6.27-13.8a69.12,69.12,0,0,1,4-6.58,19.15,19.15,0,0,1,5.44-5.66,20.17,20.17,0,0,0-5,5.9,63.65,63.65,0,0,0-3.49,6.7c-2.14,4.54-4,9.2-5.68,13.88-3.43,9.36-5.94,28.8-8.93,38.3-1.59,4.73-3,9.46-4.74,14.2a121.45,121.45,0,0,1-6,13.93A141.38,141.38,0,0,1,199.87,294.51Z" style="fill:#263238"></path><path d="M349.62,306.81c5.09-4.38,55.53,1.29,51.65,10.38-18.22,42.73-50.71,66.48-59.16,70.09-11.07,4.73-21.9-5.08-23.95-12.69C315.18,363.56,344.59,311.15,349.62,306.81Z" style="fill:#f7a9a0"></path><path d="M343.89,311.48l55.66,19.71S363.16,382.91,339,388.6c-8.67,2-21.81-6-22.65-16.94S343.89,311.48,343.89,311.48Z" style="fill:#ebebeb"></path><path d="M388.4,341.24c-21.73-6.27-43.62-16.15-47.56-17.61-.19-.06,0-.36.13-.28,3.79,1.63,30,10.21,47.57,17.58C388.74,341,388.61,341.3,388.4,341.24Z" style="fill:#263238"></path><path d="M288.82,265.11c8.17,8.65,66.24,73.45,70,75.62,0,0-1.1,55.3-28.53,48.08-17.83-4.69-55.69-83.85-62.08-115.43C265.27,258.88,271.68,247,288.82,265.11Z" style="fill:#ebebeb"></path><path d="M181,452H313.15L304,387.84H194.91C180.74,427.33,181,452,181,452Z" style="fill:#263238"></path><path d="M308,404.6l-5.12-52.9s12.23-9.05,10.25-29c-.72-7.34-27.95-60.34-30.35-62.59-9.68-9-26.62-6.15-32.7-.35C218.19,290.16,201,345.44,188.48,404.6Z" style="fill:#D1001C"></path><path d="M287.9,344.32a98.91,98.91,0,0,0-14.79,1.33c-2.43.43-4.82,1-7.21,1.57-1.19.3-2.38.56-3.58.81a15.34,15.34,0,0,1-3.82.43.09.09,0,0,0,0,.18,27.61,27.61,0,0,0,3.63.2,26,26,0,0,0,3.51-.4c2.46-.42,4.9-.95,7.36-1.39,5-.9,9.92-1.79,14.94-2.32C288.16,344.7,288.13,344.31,287.9,344.32Z" style="fill:#263238"></path><path d="M299.74,349.57a107.91,107.91,0,0,0-12.16-1.48c-2.05-.13-4.08-.13-6.12-.09-1,0-2,.07-2.93.12s-2.14.26-3.22.3c-.11,0-.12.18,0,.18,1,0,2,.15,3.05.2l3,.14c2,.1,4.07.22,6.11.3,4.08.16,8.14.36,12.21.67A.17.17,0,0,0,299.74,349.57Z" style="fill:#263238"></path><path d="M173.45,452H276.22L259.7,253.39s-11.13,2.26-20.84,13.89C200.5,313.24,173.45,452,173.45,452Z" style="fill:#ebebeb"></path><path d="M280.77,255.09,306.59,452h8.26s-10.6-98.73-10.5-99.72,14.62-15.39,11.29-33.39S283.07,256.73,280.77,255.09Z" style="fill:#ebebeb"></path><path d="M304.35,352.25c7.71-9.05,13.41-21.41,10.58-33.42a85.71,85.71,0,0,0-6.1-17.15c-2.52-5.56-5.35-11-8.36-16.29a142.61,142.61,0,0,1,9.06,16,81.53,81.53,0,0,1,6.38,17.27c2.8,12.28-3.11,24.93-11.56,33.62Z" style="fill:#263238"></path><path d="M303.93,288.32a22.08,22.08,0,0,1,3,8.69,37.21,37.21,0,0,1-3-8.69Z" style="fill:#263238"></path><path d="M286.28,264.49c1.26,2.95,2.58,5.87,3.89,8.8s2.62,5.85,4,8.76q4,8.74,8.13,17.43l.24-1.12q-4.2,3.45-8.32,7l-.66.56.42.75,7.39,13-.13-.64q-1.38,11.19-2.53,22.42-.59,5.61-1.1,11.23c-.31,3.74-.68,7.49-.93,11.24.68-3.7,1.25-7.42,1.87-11.13s1.17-7.44,1.72-11.16q1.65-11.16,3.1-22.35l0-.33-.17-.3-7.37-13-.23,1.31q4.11-3.54,8.18-7.15l.55-.49-.32-.63q-4.31-8.6-8.73-17.15c-1.46-2.85-3-5.69-4.46-8.53S287.82,267.31,286.28,264.49Z" style="fill:#dbdbdb"></path><path d="M259.09,258.88c.35,2.41,7.28,18.89,18.05,17.28,4.88-.72,8.27-17.28,8.27-17.28l.44-1.4L292,237.91l-22.16-17-3.22-2.28s-1.33,5.47-2.92,12.29c-.08.31-.15.63-.23,1s-.2.74-.28,1.11c-.25,1-.5,2.05-.73,3.09-.17.79-.35,1.56-.51,2.4s-.33,1.65-.51,2.48C259.88,249.22,259,257.85,259.09,258.88Z" style="fill:#f7a9a0"></path><path d="M292,237.91l-5.24,16.69a45.65,45.65,0,0,1-27.13-2c.41-3.32,1-7.53,1.82-11.65.18-.83.33-1.64.51-2.49s.34-1.6.52-2.39c.22-1,.47-2.08.72-3.09.08-.36.18-.73.28-1.11s.15-.65.23-1c1.59-6.82,2.92-12.29,2.92-12.29l3.22,2.27Z" style="fill:#263238"></path><path d="M234.94,213.65c1.11,36,22.79,39.39,30.56,39.14,7-.22,31-1.88,33.62-37.8s-14.47-46.78-30.61-47.12S233.83,177.65,234.94,213.65Z" style="fill:#f7a9a0"></path><path d="M240.66,208.88A24.07,24.07,0,0,0,243,208a4,4,0,0,0,2.19-1.38,1.28,1.28,0,0,0-.26-1.54,3.2,3.2,0,0,0-3.21-.22,4.66,4.66,0,0,0-2.62,2.11A1.37,1.37,0,0,0,240.66,208.88Z" style="fill:#263238"></path><path d="M264.41,205.51a23,23,0,0,1-2.49-.1,4.06,4.06,0,0,1-2.51-.59,1.27,1.27,0,0,1-.25-1.55,3.15,3.15,0,0,1,3-1.24,4.61,4.61,0,0,1,3.16,1.14A1.36,1.36,0,0,1,264.41,205.51Z" style="fill:#263238"></path><path d="M261.17,215.27c0-.1.21.08.22.18.27,2.44,1,5.19,3.3,5.68.07,0,.08.14,0,.14C262,221.27,261,217.62,261.17,215.27Z" style="fill:#263238"></path><path d="M263,212.42c3.86-.85,5.28,6.93,1.7,7.72S259.74,213.14,263,212.42Z" style="fill:#263238"></path><path d="M264.58,212.55c.76.32,1.57,1,2.4.91s1.54-1,2-1.93c.05-.09.13,0,.15.07.3,1.49,0,3.12-1.55,3.64s-2.71-.66-3.36-2.1C264.11,212.88,264.28,212.43,264.58,212.55Z" style="fill:#263238"></path><path d="M247.12,216.8c0-.09-.18.13-.17.23.34,2.43.32,5.27-1.8,6.32-.06,0,0,.15,0,.13C247.84,222.81,247.83,219,247.12,216.8Z" style="fill:#263238"></path><path d="M244.67,214.48c-4,.13-3.42,8,.24,7.91S248,214.38,244.67,214.48Z" style="fill:#263238"></path><path d="M243.15,215c-.66.49-1.29,1.32-2.11,1.46s-1.74-.61-2.42-1.37c-.07-.07-.14,0-.13.1.08,1.52.77,3,2.4,3.15s2.47-1.31,2.74-2.86C243.68,215.21,243.41,214.81,243.15,215Z" style="fill:#263238"></path><path d="M264.32,234c-.44.69-.83,1.59-1.68,1.86a6.51,6.51,0,0,1-2.71,0,.09.09,0,0,0-.08.15,3.32,3.32,0,0,0,3.34.6,2.64,2.64,0,0,0,1.39-2.55C264.58,233.92,264.39,233.91,264.32,234Z" style="fill:#263238"></path><path d="M252.73,227s.11,3.7.4,5.4c0,.16.46.17,1,.1,0,0,.05,0,.07,0a8.2,8.2,0,0,0,7.34-4.36.18.18,0,0,0-.29-.19,12.37,12.37,0,0,1-7,3.38c-.2-.46,0-6.34-.26-6.31a15,15,0,0,0-3.72,1.53c-.47-7.69.3-15.39-.28-23,0-.27-.43-.29-.46,0-1.38,8-1,16.88-.76,24.84C248.81,229.28,252.09,227.4,252.73,227Z" style="fill:#263238"></path><path d="M299.5,218.57a14.88,14.88,0,0,1-10.16-10.63,38.75,38.75,0,0,1-17.65-10.06c.35.7,2.93,5.73,4.33,8.25-23.3-.58-33.09-16.75-33.09-16.75-6.15,8.5-7.18,13.29-7.87,15.79,0,0-2.08-13.71,3.55-24.15,6.89-12.78,19.15-12.55,19.15-12.55A32.39,32.39,0,0,1,290.53,173C307.81,186.66,299.5,218.57,299.5,218.57Z" style="fill:#263238"></path><path d="M258.23,205.16a42.11,42.11,0,0,0,12.29,2.38s0,0,0,0a35.91,35.91,0,0,1-18.23-7.35,34.47,34.47,0,0,1-6-6,23.78,23.78,0,0,1-4.4-8.14.18.18,0,0,0-.34.09,27.65,27.65,0,0,0,3.23,8.62,25.25,25.25,0,0,0,6.24,6.67,28.66,28.66,0,0,0,7.19,3.81" style="fill:#263238"></path><path d="M242.74,229.73c-4.09.33-7.83-4.43-8.33-10.61s2.42-11.49,6.51-11.82,7.82,4.43,8.33,10.61S246.83,229.39,242.74,229.73ZM241,208.8c-3.26.27-5.56,4.84-5.13,10.19s3.45,9.5,6.71,9.23,5.56-4.83,5.12-10.19S244.3,208.54,241,208.8Z" style="fill:#37474f"></path><path d="M267.88,227.68c-5.78.47-10.88-4.18-11.39-10.36s3.79-11.6,9.56-12.07,10.89,4.18,11.39,10.37S273.65,227.21,267.88,227.68Zm-1.7-20.92c-4.95.4-8.62,5.08-8.18,10.44s4.81,9.38,9.76,9,8.61-5.09,8.18-10.44S271.12,206.35,266.18,206.76Z" style="fill:#37474f"></path><path d="M256.91,216.27c-5.77-1.51-8.16.53-8.18.55l-1-1.11c.11-.11,2.93-2.65,9.59-.9Z" style="fill:#37474f"></path><path d="M276.6,214.7l-.39-1.46c1-.26,15.73-4.91,18.21-5.25s9,2.57,9.72,2.9l-.63,1.37c-1.81-.84-6.85-2.94-8.78-2.79h-.11C292.71,209.75,284.69,212.51,276.6,214.7Z" style="fill:#37474f"></path><path d="M292.17,216.7s5.45-12.58,11-10.85,3,18.87-2.4,22.25a6.09,6.09,0,0,1-8.65-1.58Z" style="fill:#f7a9a0"></path><path d="M302.33,210.74a.08.08,0,0,1,.07.15c-3.78,2.51-5.17,6.77-5.88,11,.92-1.77,2.41-2.95,4.75-1.91.12.06.05.25-.07.25a3.73,3.73,0,0,0-3.77,2.1,17.43,17.43,0,0,0-1.27,3.66c-.12.41-.82.35-.77-.1,0,0,0-.07,0-.1C294.23,220.59,296.81,212.42,302.33,210.74Z" style="fill:#263238"></path><path d="M254.52,282.21C250.2,327.6,232.84,383,225,392.72c-9.88,12.33-65.92,32.44-69.6,33.34-9.12,2.15-36-53-30.54-53.75,15.11-2.16,56.42-15.57,59.25-19.35a713.53,713.53,0,0,0,44.78-71.63C242.26,256.54,257.21,254.05,254.52,282.21Z" style="fill:#f7a9a0"></path><path d="M163.71,422.89c-.87.61-13.32,9.27-21.27,12.86-5.93,2.68-23.21,9.92-26.81,3.69-2.46-4.25,7.2-9.71,14-13.72,3.55-2.12,7.64-6.74,6.18-9-2.55-4-11.67,1.69-17.53,6.32-11.34,9-26,24.24-34.42,19-3.2-2-.5-6.75,3.75-11.68-7.17,6.06-15,11.31-18.62,9.26-2.08-1.16-2.45-3.11-1.72-5.5-2.32,1.14-4.49,1.29-6.21-.08-2.94-2.31-2.26-6.44,0-10.89a3.09,3.09,0,0,1-2.54-1.2c-6.6-7.48,17.13-35.08,26.19-38.64,26.66-10.5,55.91-13.43,55.91-13.43C152.61,377,163.73,422.87,163.71,422.89Z" style="fill:#f7a9a0"></path><path d="M119.51,403.28A47.28,47.28,0,0,0,102.12,413c-6.34,5.62-10.21,11.69-15.3,18-.14.16.12.37.25.21,2.43-3,12.63-14.37,15.31-17a45.08,45.08,0,0,1,17.17-10.77A.06.06,0,0,0,119.51,403.28Z" style="fill:#263238"></path><path d="M112.7,392.3c-7,3-14.12,6.09-20.36,10.48-6.83,4.81-11.72,11.75-16.55,18.45q-4.35,6-8.43,12.26c-.11.17.13.39.26.21q7.32-10.36,15.26-20.27a59.45,59.45,0,0,1,17.78-15.09c3.92-2.18,8-4,12.08-5.91C112.82,392.39,112.77,392.27,112.7,392.3Z" style="fill:#263238"></path><path d="M103.49,383.17c-6.84,2.45-12.81,4.57-18.52,9.24-7.54,6.17-14.31,15.74-16.69,19.12-2.61,3.74-5.11,7.56-7.54,11.43-.1.15.17.33.27.17a238.55,238.55,0,0,1,18.46-24.35,47,47,0,0,1,10.9-9.54,85.55,85.55,0,0,1,13.13-6S103.52,383.16,103.49,383.17Z" style="fill:#263238"></path><path d="M137.51,364.93l28.63,62.73s54.6-21,63.09-35.59c6.65-11.43,23.63-75.95,25.77-107.49s-11.73-27.8-25-7.49c-14.27,21.79-44.46,72.69-46.31,74S137.51,364.93,137.51,364.93Z" style="fill:#ebebeb"></path><path d="M166.86,396.2c-3.13-6.71-6.32-13.39-9.2-20.22-1.64-3.88-3.3-7.75-4.9-11.65-.06-.15.19-.27.26-.13,3.41,6.6,6.82,13.23,9.93,20s6.24,13.44,9.24,20.21c1.71,3.85,3.3,7.74,4.77,11.7,0,.08-.1.14-.14.07C173.18,409.68,170,403,166.86,396.2Z" style="fill:#263238"></path><path d="M168.84,426.58c16.51-7,33-14.35,48.15-24,4.32-3,9-6,11.77-10.57,2.32-4.82,3.76-10.05,5.3-15.17,7.75-27.66,13.85-55.8,20.19-83.82q-4.08,21.18-8.8,42.23c-3.21,14-6.45,28-10.47,41.86-1,3.46-2.08,6.9-3.32,10.29s-2.8,6.91-5.59,9.3c-5.33,4.94-11.66,8.52-18,12a360.19,360.19,0,0,1-39.27,17.86Z" style="fill:#263238"></path><path d="M252.25,306a51,51,0,0,1,3.06-9.79,26,26,0,0,1-3.06,9.79Z" style="fill:#263238"></path><path d="M259.39,254.43c-1.41,3.73-2.77,7.48-4.13,11.22l-4.06,11.24q-4,11.26-7.9,22.56l-.24.68.61.44q6.17,4.4,12.4,8.72l-.28-1.52L245.43,323l-.34.51.25.55q5.43,11.93,11,23.77c1.88,3.95,3.76,7.89,5.69,11.82s3.83,7.85,5.83,11.75c-1.61-4.07-3.31-8.1-5-12.15s-3.38-8.06-5.1-12.07q-5.17-12-10.53-24l-.09,1.05L257.6,309l.61-.9-.9-.61q-6.24-4.31-12.53-8.53l.37,1.11q3.71-11.35,7.27-22.77l3.52-11.42C257.11,262.07,258.28,258.26,259.39,254.43Z" style="fill:#dbdbdb"></path><polygon points="267.15 369.48 247.22 324.2 258.21 308.1 244.78 298.96 259.26 255.94 267.15 369.48" style="fill:#ebebeb"></polygon><path d="M301.23,451.76h10.41s2.48-38.27,25.64-40.19c12.25-1,23.56,7.72,32.35,17.53-8.71-9.89-24.15-22.65-38.87-22.65C308.58,406.45,301.23,451.76,301.23,451.76Z" style="fill:#263238"></path><polygon points="369.87 333.23 353.92 300.72 348.52 308.02 362.2 333.23 369.87 333.23" style="fill:#263238"></polygon><rect x="332.87" y="317.61" width="38.99" height="9.36" transform="translate(231.73 784.33) rotate(-117.81)" style="fill:#455a64"></rect><polygon points="357.33 341.72 352.37 340.37 337.39 312.63 339.13 307.23 357.33 341.72" style="fill:#37474f"></polygon><rect x="399.13" y="335.67" width="6.73" height="24.69" rx="2.65" transform="translate(911.55 502.88) rotate(156.07)" style="fill:#37474f"></rect><rect x="380.16" y="347.06" width="6.73" height="24.69" rx="2.65" transform="translate(879.85 532.4) rotate(156.08)" style="fill:#37474f"></rect><rect x="390.71" y="342.7" width="9.35" height="31.8" rx="3.59" transform="translate(902.23 526.07) rotate(156.08)" style="fill:#37474f"></rect><rect x="354.52" y="248.08" width="9.35" height="31.8" rx="3.59" transform="translate(794.59 359.59) rotate(156.07)" style="fill:#37474f"></rect><rect x="340.53" y="254.29" width="9.35" height="31.8" rx="3.59" transform="translate(770.32 377.17) rotate(156.08)" style="fill:#37474f"></rect><path d="M401.69,337.31,368.2,267.59s-9.56.33-26.11,11.81L377.66,349A66.78,66.78,0,0,0,401.69,337.31Z" style="fill:#37474f"></path><path d="M371,354.77s31.55-9.3,40.22-17.84l-2.76-6.22a84.94,84.94,0,0,0-40.22,17.84Z" style="fill:#455a64"></path><path d="M340.89,281.38s12.48-10.64,29.44-13.84l-2.9-6.16c-17.91-.31-29.44,13.84-29.44,13.84Z" style="fill:#455a64"></path><path d="M364.14,323.31s13.8-9.13,25.7-12.08a1.28,1.28,0,0,0,.65-1.81l-3.24-6.9a1.49,1.49,0,0,0-1.82-.65c-16,4.06-25.69,12.08-25.69,12.08a1.36,1.36,0,0,0-.65,1.81l3.24,6.9A1.36,1.36,0,0,0,364.14,323.31Z" style="fill:#455a64"></path><path d="M341.9,314.82l-2.5-1.11s-34.82,15.44-33,57c1.19,27.51,21.26,46.52,21.26,46.52s-24.41-31.48-15.28-60.63S341.9,314.82,341.9,314.82Z" style="fill:#455a64"></path><path d="M309.2,373.53c2,25.36,18.45,43.65,18.45,43.65h25c11.44-15.06,29.66-23.86,29.66-23.86l-19.95,3.49-1.78-.91L357,394.11s-5.06,7.73-12.67,7.56a11.77,11.77,0,0,1-4.5-1c-8.89-3.84-13.38-27.43-9.22-41.52S353,336.34,353,336.34L341.9,314.82C322,323.73,307.21,348.17,309.2,373.53Z" style="fill:#37474f"></path><path d="M344.37,401.68s6.53,2.21,16.18-5.78L357,394.11s-5.06,7.73-12.67,7.56Z" style="fill:#455a64"></path><path d="M311.64,451.76H386.1c-1.86-2.9-5.08-8.13-9.35-13.89l-.27-.37-.34-.45-.21-.29-.65-.84c0-.08-.12-.16-.18-.24l-.7-.89c-.37-.48-.79-1-1.24-1.55-.32-.4-.64-.79-1-1.18-.51-.61-1.06-1.26-1.64-1.92-.29-.35-.59-.69-.92-1-8.79-9.81-20.1-18.54-32.35-17.53C314.12,413.49,311.64,451.76,311.64,451.76Z" style="fill:#455a64"></path><rect x="365.01" y="384.86" width="73.45" height="9.3" transform="translate(834.5 744.22) rotate(175.23)" style="fill:#263238"></rect><rect x="348.88" y="388.59" width="16.28" height="9.3" transform="translate(745.54 755.4) rotate(175.22)" style="fill:#37474f"></rect><circle cx="373.93" cy="445.63" r="2.52" style="fill:#263238"></circle><circle cx="321.59" cy="445.63" r="2.52" style="fill:#263238"></circle><path d="M339.83,419.7a2.52,2.52,0,1,0,2.52-2.52A2.52,2.52,0,0,0,339.83,419.7Z" style="fill:#263238"></path><path d="M359.19,284.47a2.52,2.52,0,1,0,2.52-2.52A2.52,2.52,0,0,0,359.19,284.47Z" style="fill:#263238"></path><path d="M381,330.71a2.52,2.52,0,1,0,2.52-2.52A2.52,2.52,0,0,0,381,330.71Z" style="fill:#263238"></path><path d="M334.87,331.59a2.52,2.52,0,1,0,2.52-2.52A2.52,2.52,0,0,0,334.87,331.59Z" style="fill:#263238"></path><path d="M353.72,404.42a2.52,2.52,0,1,0,2.52-2.52A2.52,2.52,0,0,0,353.72,404.42Z" style="fill:#263238"></path><path d="M375.4,271.08c7.56,2.73,20.08,3,24.76,6.76a6.86,6.86,0,0,1,2.39,7.82s6.28-2.06,10,2c1.9,2.1.22,7,.22,7s5.11-1.43,8.17,2.39c2.44,3.05.39,7.48.39,7.48s5.54.91,7,4.81c3,7.91-20.79,31.47-33.15,26.34-5.76-2.4.37-7.83.37-7.83s-10.7,5.69-15.69.9,3.41-11.37,3.41-11.37-10.42,5.43-15.08-.05c-4.86-5.71,4.66-10.86,4.66-10.86s-8.85,1.65-11.46-3.36c-4.31-8.28,13.6-10.23,17.61-16.65L373.35,275Z" style="fill:#f7a9a0"></path><path d="M387.59,273.85c-6.93-3.21-6.84-15.74-13-19.77-8.37-5.45-9.45,9.08-1.21,20.87l8,8Z" style="fill:#f7a9a0"></path><path d="M421.08,305.25a.09.09,0,0,1,.14.1c-5.94,9.66-15.43,18.45-26,22.81-.35.15-.73-.35-.38-.58C404.88,321,413.23,314.37,421.08,305.25Z" style="fill:#263238"></path><path d="M412.91,294.58c.08-.1.25,0,.17.16-6.18,9.91-17.14,19.52-29.88,23.12-.44.12-.95-.21-.46-.39C391,314.44,405.89,302.82,412.91,294.58Z" style="fill:#263238"></path><path d="M371.84,306.42c12.08-3.92,21.69-11.32,30.47-20.34.12-.12.27.06.2.18-3.09,5.58-9.29,10.75-14.45,14.36A33.43,33.43,0,0,1,372,306.84C371.74,306.87,371.58,306.51,371.84,306.42Z" style="fill:#263238"></path></g><g id="freepik--Device--inject-5"><rect x="126.36" y="446.25" width="122.93" height="5.51" style="fill:#455a64"></rect><rect x="187.42" y="446.26" width="61.87" height="5.51" style="fill:#263238"></rect><polygon points="182.62 451.76 62.82 451.74 45.91 370.37 165.71 370.39 182.62 451.76" style="fill:#263238"></polygon><polygon points="176.84 451.76 57.04 451.74 40.13 370.37 159.93 370.39 176.84 451.76" style="fill:#37474f"></polygon><path d="M113.89,412.84A5.79,5.79,0,0,1,108,419.4a7.46,7.46,0,0,1-7.24-6.56,5.8,5.8,0,0,1,5.87-6.56A7.46,7.46,0,0,1,113.89,412.84Z" style="fill:#fff"></path></g><g id="freepik--Flasks--inject-5"><rect x="631.72" y="338.53" width="5.25" height="109.84" transform="translate(1268.69 786.9) rotate(180)" style="fill:#263238"></rect><rect x="604.08" y="324.44" width="5.25" height="40.67" transform="translate(261.92 951.48) rotate(-90)" style="fill:#263238"></rect><rect x="627.04" y="339.58" width="4.68" height="10.39" transform="translate(1258.76 689.56) rotate(180)" style="fill:#37474f"></rect><rect x="626.05" y="448.37" width="16.58" height="3.6" transform="translate(1268.69 900.34) rotate(180)" style="fill:#263238"></rect><rect x="474.53" y="338.53" width="5.25" height="109.84" style="fill:#263238"></rect><rect x="502.18" y="324.44" width="5.25" height="40.67" transform="translate(160.02 849.58) rotate(-90)" style="fill:#263238"></rect><rect x="479.79" y="339.58" width="4.68" height="10.39" style="fill:#37474f"></rect><rect x="468.87" y="448.37" width="16.58" height="3.6" transform="translate(954.32 900.34) rotate(180)" style="fill:#263238"></rect><g style="opacity:0.7000000000000001"><path d="M578.37,386.26a29.3,29.3,0,1,0,36.91-28.37l-.09-23.72h2.37v-4.66l-20.08,0v4.66h2.38l.09,23.72A29.29,29.29,0,0,0,578.37,386.26Z" style="fill:#fff"></path><path d="M584.33,368.42a29.38,29.38,0,0,1,15.6-10.55l0,.06-.25-23.72.23.23h-2.62v-.25l0-4.66v-.27h.27l20.09-.15H618v5.46h-2.78l.41-.41.08,11.86,0,11.86-.31-.4a29.74,29.74,0,0,1,14,8.42,29.31,29.31,0,0,1,7.39,14.5,29.54,29.54,0,0,1-11.1,29.17,29.42,29.42,0,0,1-15.06,5.88,29.73,29.73,0,0,1-15.86-2.91,29.44,29.44,0,0,1-10.39-44.13Zm-1.49,33.28a29.1,29.1,0,1,0,32.33-43.4l-.31-.09v-.32L614.79,346V333.76h2.78l-.4.41v-4.66l.39.39-20.08-.07.27-.28,0,4.66-.24-.25,2.38,0h.23v.23L600,357.93V358l0,0a29.18,29.18,0,0,0-17.13,43.7Z" style="fill:#263238"></path></g><path d="M631.71,386.15s.65-16.63-16.31-22.2" style="fill:#fff"></path><path d="M583.51,388.62a24.28,24.28,0,0,0,48.31,0Z" style="fill:#455a64"></path><path d="M589,381.18a2.21,2.21,0,1,0,2.21-2.21A2.2,2.2,0,0,0,589,381.18Z" style="fill:#455a64"></path><circle cx="601.72" cy="386.15" r="1.42" style="fill:#455a64"></circle><path d="M617.81,378.34a1.43,1.43,0,1,0,1.43-1.42A1.43,1.43,0,0,0,617.81,378.34Z" style="fill:#455a64"></path><path d="M597,375.83a1.09,1.09,0,1,0,1.09-1.08A1.09,1.09,0,0,0,597,375.83Z" style="fill:#455a64"></path><path d="M625.17,386.15a1.09,1.09,0,1,0,1.09-1.09A1.09,1.09,0,0,0,625.17,386.15Z" style="fill:#455a64"></path><path d="M621.51,385.25a.45.45,0,0,0,.89,0,.45.45,0,1,0-.89,0Z" style="fill:#455a64"></path><rect x="469.96" y="354.75" width="14.4" height="40" rx="3.14" transform="translate(954.32 749.49) rotate(180)" style="fill:#fff"></rect><path d="M469.52,387.55V362a7.65,7.65,0,1,1,15.29,0v25.6a7.65,7.65,0,0,1-15.29,0Zm.89-25.6v25.6a6.75,6.75,0,0,0,13.5,0V362a6.75,6.75,0,1,0-13.5,0Z" style="fill:#263238"></path><path d="M473.45,387.8a3.71,3.71,0,1,0,3.71-3.71A3.71,3.71,0,0,0,473.45,387.8Z" style="fill:#D1001C"></path><rect x="476.08" y="359.61" width="2.16" height="27.68" rx="0.47" transform="translate(954.32 746.9) rotate(180)" style="fill:#dbdbdb"></rect><rect x="476.08" y="369.77" width="2.16" height="17.52" rx="0.47" transform="translate(954.32 757.06) rotate(180)" style="fill:#D1001C"></rect><rect x="461.76" y="390.91" width="3.11" height="60.72" transform="translate(926.63 842.54) rotate(180)" style="fill:#263238"></rect><rect x="395.42" y="447.38" width="66.34" height="4.25" transform="translate(857.18 899.01) rotate(180)" style="fill:#263238"></rect><path d="M439.08,386.88l.23,50.83a6,6,0,0,0,12-.06l-.23-50.83Z" style="fill:#ebebeb"></path><path d="M439.85,401.58l.16,36.09a5.3,5.3,0,1,0,10.6,0l-.16-36.1Z" style="fill:#c7c7c7"></path><rect x="437.2" y="382.37" width="15.75" height="7.9" transform="translate(891.9 770.63) rotate(179.74)" style="fill:#D1001C"></rect><path d="M401.93,386.88l.23,50.83a6,6,0,1,0,12-.06l-.23-50.83Z" style="fill:#ebebeb"></path><path d="M402.69,401.58l.17,36.09a5.3,5.3,0,1,0,10.6,0l-.17-36.1Z" style="fill:#c7c7c7"></path><rect x="400.05" y="382.37" width="15.75" height="7.9" transform="translate(817.59 770.8) rotate(179.74)" style="fill:#D1001C"></rect><path d="M420.61,386.88l.22,50.83a6,6,0,0,0,12-.06l-.23-50.83Z" style="fill:#ebebeb"></path><path d="M421.37,401.58l.16,36.09a5.3,5.3,0,1,0,10.6,0l-.16-36.1Z" style="fill:#37474f"></path><rect x="418.72" y="382.37" width="15.75" height="7.9" transform="translate(854.94 770.72) rotate(179.74)" style="fill:#455a64"></rect><path d="M395.42,413.59l0,5.68h66.32v-5.68H451v1.9c0,.94-2.65,1.69-5.91,1.69s-5.91-.75-5.91-1.69v-1.9h-6.66v1.9c0,.94-2.65,1.69-5.91,1.69s-5.9-.75-5.9-1.69v-1.9H414v1.9c0,.94-2.64,1.69-5.9,1.69s-5.9-.75-5.9-1.69v-1.9Z" style="fill:#455a64"></path><rect x="395.42" y="419.27" width="66.34" height="2.29" transform="translate(857.18 840.82) rotate(180)" style="fill:#263238"></rect><rect x="392.31" y="390.91" width="3.11" height="60.72" transform="translate(787.74 842.54) rotate(180)" style="fill:#263238"></rect><rect x="596.82" y="440.15" width="21.26" height="11.48" transform="translate(1214.91 891.78) rotate(180)" style="fill:#dbdbdb"></rect><rect x="606.98" y="435.54" width="0.94" height="4.61" transform="translate(1214.9 875.69) rotate(180)" style="fill:#263238"></rect><path d="M607.46,436.64c6.14,0,0-12.37,0-12.37S601.3,436.64,607.46,436.64Z" style="fill:#D1001C"></path><path d="M607.46,436.64c6.14,0,0-12.37,0-12.37S601.3,436.64,607.46,436.64Z" style="opacity:0.2"></path><path d="M607.45,436.64c3.79,0,0-7.62,0-7.62S603.66,436.64,607.45,436.64Z" style="fill:#D1001C"></path></g></svg>
